<svg width="151" height="50" viewBox="0 0 151 50" fill="none" xmlns="http://www.w3.org/2000/svg">
<rect width="151" height="50" rx="25" fill="#9DFF3A"/>
<path d="M34.998 21.514C34.518 21.058 33.954 20.704 33.306 20.452C32.67 20.188 32.022 20.056 31.362 20.056C30.714 20.056 30.114 20.176 29.562 20.416C29.01 20.656 28.524 20.986 28.104 21.406C27.684 21.826 27.354 22.318 27.114 22.882C26.886 23.434 26.772 24.034 26.772 24.682C26.772 25.33 26.886 25.936 27.114 26.5C27.354 27.064 27.684 27.562 28.104 27.994C28.524 28.414 29.01 28.744 29.562 28.984C30.126 29.224 30.732 29.344 31.38 29.344C31.968 29.344 32.574 29.224 33.198 28.984C33.834 28.744 34.404 28.42 34.908 28.012L36.132 29.488C35.712 29.812 35.226 30.1 34.674 30.352C34.134 30.604 33.57 30.802 32.982 30.946C32.394 31.078 31.812 31.144 31.236 31.144C30.3 31.144 29.43 30.982 28.626 30.658C27.834 30.322 27.132 29.86 26.52 29.272C25.92 28.684 25.452 28 25.116 27.22C24.78 26.428 24.612 25.582 24.612 24.682C24.612 23.782 24.78 22.948 25.116 22.18C25.464 21.4 25.944 20.716 26.556 20.128C27.168 19.54 27.882 19.084 28.698 18.76C29.526 18.436 30.414 18.274 31.362 18.274C31.962 18.274 32.55 18.346 33.126 18.49C33.714 18.634 34.272 18.838 34.8 19.102C35.328 19.366 35.796 19.684 36.204 20.056L34.998 21.514ZM34.278 24.844H36.132V29.488H34.278V24.844ZM45.6364 25.528C45.6124 24.988 45.4864 24.532 45.2584 24.16C45.0424 23.776 44.7364 23.482 44.3404 23.278C43.9444 23.062 43.4884 22.954 42.9724 22.954C42.3964 22.954 41.8924 23.086 41.4604 23.35C41.0404 23.614 40.7104 23.986 40.4704 24.466C40.2304 24.934 40.1104 25.486 40.1104 26.122C40.1104 26.806 40.2364 27.4 40.4884 27.904C40.7524 28.408 41.1124 28.798 41.5684 29.074C42.0364 29.35 42.5704 29.488 43.1704 29.488C44.2384 29.488 45.1384 29.11 45.8704 28.354L46.9684 29.452C46.5004 29.968 45.9304 30.37 45.2584 30.658C44.5864 30.934 43.8364 31.072 43.0084 31.072C42.0244 31.072 41.1664 30.868 40.4344 30.46C39.7024 30.052 39.1324 29.488 38.7244 28.768C38.3164 28.036 38.1124 27.19 38.1124 26.23C38.1124 25.27 38.3164 24.43 38.7244 23.71C39.1324 22.978 39.7024 22.408 40.4344 22C41.1664 21.592 42.0064 21.382 42.9544 21.37C44.0824 21.37 44.9884 21.604 45.6724 22.072C46.3564 22.528 46.8424 23.176 47.1304 24.016C47.4184 24.856 47.5204 25.852 47.4364 27.004H39.7864V25.528H45.6364ZM52.0245 27.976C52.0245 28.492 52.1145 28.846 52.2945 29.038C52.4745 29.218 52.7265 29.308 53.0505 29.308C53.2665 29.308 53.4885 29.272 53.7165 29.2C53.9565 29.128 54.2145 29.02 54.4905 28.876L55.0125 30.37C54.6405 30.598 54.2565 30.778 53.8605 30.91C53.4645 31.03 53.0625 31.09 52.6545 31.09C52.1745 31.09 51.7305 31 51.3225 30.82C50.9145 30.628 50.5845 30.328 50.3325 29.92C50.0925 29.512 49.9725 28.984 49.9725 28.336V19.174H52.0245V27.976ZM48.6225 21.784H54.8505V23.26H48.6225V21.784ZM69.5701 21.316C69.1141 21.028 68.6641 20.8 68.2201 20.632C67.7761 20.464 67.3561 20.344 66.9601 20.272C66.5641 20.2 66.2041 20.164 65.8801 20.164C65.2561 20.164 64.7581 20.284 64.3861 20.524C64.0141 20.764 63.8281 21.112 63.8281 21.568C63.8281 21.976 63.9481 22.312 64.1881 22.576C64.4401 22.828 64.7641 23.038 65.1601 23.206C65.5681 23.362 66.0121 23.512 66.4921 23.656C66.9841 23.8 67.4701 23.962 67.9501 24.142C68.4301 24.31 68.8741 24.532 69.2821 24.808C69.6901 25.084 70.0141 25.438 70.2541 25.87C70.4941 26.29 70.6141 26.824 70.6141 27.472C70.6141 28.216 70.4101 28.864 70.0021 29.416C69.5941 29.956 69.0301 30.376 68.3101 30.676C67.6021 30.976 66.7861 31.126 65.8621 31.126C65.2021 31.126 64.5601 31.042 63.9361 30.874C63.3121 30.694 62.7241 30.454 62.1721 30.154C61.6321 29.854 61.1461 29.506 60.7141 29.11L61.6321 27.364C62.0641 27.76 62.5201 28.096 63.0001 28.372C63.4921 28.648 63.9841 28.858 64.4761 29.002C64.9801 29.146 65.4541 29.218 65.8981 29.218C66.6421 29.218 67.2181 29.074 67.6261 28.786C68.0461 28.498 68.2561 28.096 68.2561 27.58C68.2561 27.16 68.1301 26.824 67.8781 26.572C67.6381 26.308 67.3141 26.092 66.9061 25.924C66.5101 25.756 66.0661 25.606 65.5741 25.474C65.0941 25.342 64.6081 25.192 64.1161 25.024C63.6361 24.844 63.1921 24.622 62.7841 24.358C62.3881 24.094 62.0641 23.752 61.8121 23.332C61.5721 22.912 61.4521 22.378 61.4521 21.73C61.4521 21.022 61.6441 20.41 62.0281 19.894C62.4121 19.366 62.9461 18.958 63.6301 18.67C64.3261 18.382 65.1301 18.238 66.0421 18.238C66.8581 18.238 67.6501 18.358 68.4181 18.598C69.1861 18.838 69.8641 19.15 70.4521 19.534L69.5701 21.316ZM75.4034 27.976C75.4034 28.492 75.4934 28.846 75.6734 29.038C75.8534 29.218 76.1054 29.308 76.4294 29.308C76.6454 29.308 76.8674 29.272 77.0954 29.2C77.3354 29.128 77.5934 29.02 77.8694 28.876L78.3914 30.37C78.0194 30.598 77.6354 30.778 77.2394 30.91C76.8434 31.03 76.4414 31.09 76.0334 31.09C75.5534 31.09 75.1094 31 74.7014 30.82C74.2934 30.628 73.9634 30.328 73.7114 29.92C73.4714 29.512 73.3514 28.984 73.3514 28.336V19.174H75.4034V27.976ZM72.0014 21.784H78.2294V23.26H72.0014V21.784ZM83.4354 26.734C82.7634 26.734 82.2654 26.836 81.9414 27.04C81.6174 27.244 81.4554 27.58 81.4554 28.048C81.4554 28.492 81.6174 28.846 81.9414 29.11C82.2774 29.374 82.7334 29.506 83.3094 29.506C83.8254 29.506 84.2874 29.416 84.6954 29.236C85.1034 29.056 85.4274 28.816 85.6674 28.516C85.9074 28.204 86.0334 27.856 86.0454 27.472L86.4414 29.218C86.1414 29.842 85.6854 30.31 85.0734 30.622C84.4614 30.934 83.7294 31.09 82.8774 31.09C82.1934 31.09 81.5994 30.958 81.0954 30.694C80.5914 30.43 80.2014 30.076 79.9254 29.632C79.6494 29.176 79.5114 28.672 79.5114 28.12C79.5114 27.256 79.8234 26.566 80.4474 26.05C81.0834 25.534 81.9774 25.27 83.1294 25.258H86.2974V26.734H83.4354ZM86.0274 24.934C86.0274 24.31 85.8354 23.824 85.4514 23.476C85.0674 23.128 84.4974 22.954 83.7414 22.954C83.2854 22.954 82.8174 23.038 82.3374 23.206C81.8694 23.374 81.3954 23.62 80.9154 23.944L80.0694 22.612C80.5134 22.336 80.9334 22.108 81.3294 21.928C81.7254 21.748 82.1454 21.61 82.5894 21.514C83.0454 21.418 83.5794 21.37 84.1914 21.37C85.4274 21.37 86.3754 21.67 87.0354 22.27C87.7074 22.858 88.0494 23.674 88.0614 24.718L88.0794 31H86.0454L86.0274 24.934ZM96.2323 23.242C95.5483 23.206 94.9543 23.326 94.4503 23.602C93.9583 23.866 93.5743 24.238 93.2983 24.718C93.0343 25.198 92.9023 25.75 92.9023 26.374L92.3263 26.302C92.3263 25.234 92.4823 24.334 92.7943 23.602C93.1063 22.87 93.5563 22.318 94.1443 21.946C94.7323 21.562 95.4283 21.37 96.2323 21.37V23.242ZM90.8503 21.442H92.9203V31H90.8503V21.442ZM100.364 27.976C100.364 28.492 100.454 28.846 100.634 29.038C100.814 29.218 101.066 29.308 101.39 29.308C101.606 29.308 101.828 29.272 102.056 29.2C102.296 29.128 102.554 29.02 102.83 28.876L103.352 30.37C102.98 30.598 102.596 30.778 102.2 30.91C101.804 31.03 101.402 31.09 100.994 31.09C100.514 31.09 100.07 31 99.6623 30.82C99.2543 30.628 98.9243 30.328 98.6723 29.92C98.4323 29.512 98.3123 28.984 98.3123 28.336V19.174H100.364V27.976ZM96.9623 21.784H103.19V23.26H96.9623V21.784ZM111.783 25.528C111.759 24.988 111.633 24.532 111.405 24.16C111.189 23.776 110.883 23.482 110.487 23.278C110.091 23.062 109.635 22.954 109.119 22.954C108.543 22.954 108.039 23.086 107.607 23.35C107.187 23.614 106.857 23.986 106.617 24.466C106.377 24.934 106.257 25.486 106.257 26.122C106.257 26.806 106.383 27.4 106.635 27.904C106.899 28.408 107.259 28.798 107.715 29.074C108.183 29.35 108.717 29.488 109.317 29.488C110.385 29.488 111.285 29.11 112.017 28.354L113.115 29.452C112.647 29.968 112.077 30.37 111.405 30.658C110.733 30.934 109.983 31.072 109.155 31.072C108.171 31.072 107.313 30.868 106.581 30.46C105.849 30.052 105.279 29.488 104.871 28.768C104.463 28.036 104.259 27.19 104.259 26.23C104.259 25.27 104.463 24.43 104.871 23.71C105.279 22.978 105.849 22.408 106.581 22C107.313 21.592 108.153 21.382 109.101 21.37C110.229 21.37 111.135 21.604 111.819 22.072C112.503 22.528 112.989 23.176 113.277 24.016C113.565 24.856 113.667 25.852 113.583 27.004H105.933V25.528H111.783ZM119.395 21.352C120.283 21.352 121.033 21.55 121.645 21.946C122.269 22.33 122.743 22.888 123.067 23.62C123.403 24.34 123.565 25.204 123.553 26.212C123.565 27.22 123.409 28.09 123.085 28.822C122.761 29.554 122.287 30.118 121.663 30.514C121.051 30.898 120.307 31.09 119.431 31.09C118.519 31.09 117.715 30.886 117.019 30.478C116.335 30.058 115.801 29.482 115.417 28.75C115.033 28.006 114.841 27.154 114.841 26.194C114.841 25.234 115.033 24.394 115.417 23.674C115.801 22.942 116.335 22.372 117.019 21.964C117.703 21.556 118.495 21.352 119.395 21.352ZM119.863 23.026C119.287 23.026 118.777 23.164 118.333 23.44C117.889 23.716 117.541 24.1 117.289 24.592C117.049 25.072 116.923 25.624 116.911 26.248C116.923 26.872 117.049 27.424 117.289 27.904C117.541 28.384 117.889 28.762 118.333 29.038C118.777 29.314 119.287 29.452 119.863 29.452C120.439 29.452 120.949 29.314 121.393 29.038C121.837 28.762 122.179 28.384 122.419 27.904C122.671 27.424 122.797 26.872 122.797 26.248C122.797 25.612 122.671 25.054 122.419 24.574C122.179 24.094 121.837 23.716 121.393 23.44C120.949 23.164 120.439 23.026 119.863 23.026ZM122.797 17.644H124.867V31H122.797V17.644Z" fill="black"/>
</svg>
