<svg width="38" height="38" viewBox="0 0 38 38" fill="none" xmlns="http://www.w3.org/2000/svg">
<path d="M13 7C13 9.83 13 11.244 12.12 12.12C11.242 13 9.83 13 7 13C4.17 13 2.756 13 1.88 12.12C1 11.242 1 9.83 1 7C1 4.17 1 2.756 1.88 1.88C2.758 1 4.17 1 7 1C9.83 1 11.244 1 12.12 1.88C13 2.758 13 4.17 13 7ZM13 7H19M31 13C28.17 13 26.756 13 25.88 12.12C25 11.242 25 9.83 25 7C25 4.17 25 2.756 25.88 1.88C26.758 1 28.17 1 31 1C33.83 1 35.244 1 36.12 1.88C37 2.758 37 4.17 37 7C37 9.83 37 11.244 36.12 12.12C35.242 13 33.83 13 31 13ZM31 13V19M25 31C25 28.17 25 26.756 25.88 25.88C26.758 25 28.17 25 31 25C33.83 25 35.244 25 36.12 25.88C37 26.758 37 28.172 37 31C37 33.828 37 35.242 36.12 36.12C35.242 37 33.828 37 31 37C28.172 37 26.758 37 25.88 36.12C25 35.242 25 33.83 25 31ZM25 31H19M7 25C9.83 25 11.244 25 12.12 25.88C13 26.758 13 28.17 13 31C13 33.83 13 35.244 12.12 36.12C11.242 37 9.83 37 7 37C4.17 37 2.756 37 1.88 36.12C1 35.242 1 33.83 1 31C1 28.17 1 26.756 1.88 25.88C2.758 25 4.17 25 7 25ZM7 25V19" stroke="#9DFF3A" stroke-width="2" stroke-linecap="round" stroke-linejoin="round"/>
</svg>
