<svg width="192" height="54" viewBox="0 0 192 54" fill="none" xmlns="http://www.w3.org/2000/svg">
<rect x="0.75" y="0.75" width="190" height="52" rx="26" stroke="url(#paint0_linear_1_98)" stroke-opacity="0.6" stroke-width="1.5"/>
<path d="M30.75 20.25V34.25L41.75 27.25L30.75 20.25Z" fill="#E5E5E5"/>
<path d="M54.804 20.15H57.09L60.474 31.418H59.934L63.318 20.15H65.406L68.808 31.418H68.268L71.634 20.15H73.83L69.564 32.75H67.368L64.056 21.86L64.596 21.878L61.23 32.75H59.052L54.804 20.15ZM77.7108 28.484C77.0388 28.484 76.5408 28.586 76.2168 28.79C75.8928 28.994 75.7308 29.33 75.7308 29.798C75.7308 30.242 75.8928 30.596 76.2168 30.86C76.5528 31.124 77.0088 31.256 77.5848 31.256C78.1008 31.256 78.5628 31.166 78.9708 30.986C79.3788 30.806 79.7028 30.566 79.9428 30.266C80.1828 29.954 80.3088 29.606 80.3208 29.222L80.7168 30.968C80.4168 31.592 79.9608 32.06 79.3488 32.372C78.7368 32.684 78.0048 32.84 77.1528 32.84C76.4688 32.84 75.8748 32.708 75.3708 32.444C74.8668 32.18 74.4768 31.826 74.2008 31.382C73.9248 30.926 73.7868 30.422 73.7868 29.87C73.7868 29.006 74.0988 28.316 74.7228 27.8C75.3588 27.284 76.2528 27.02 77.4048 27.008H80.5728V28.484H77.7108ZM80.3028 26.684C80.3028 26.06 80.1108 25.574 79.7268 25.226C79.3428 24.878 78.7728 24.704 78.0168 24.704C77.5608 24.704 77.0928 24.788 76.6128 24.956C76.1448 25.124 75.6708 25.37 75.1908 25.694L74.3448 24.362C74.7888 24.086 75.2088 23.858 75.6048 23.678C76.0008 23.498 76.4208 23.36 76.8648 23.264C77.3208 23.168 77.8548 23.12 78.4668 23.12C79.7028 23.12 80.6508 23.42 81.3108 24.02C81.9828 24.608 82.3248 25.424 82.3368 26.468L82.3548 32.75H80.3208L80.3028 26.684ZM87.5557 29.726C87.5557 30.242 87.6457 30.596 87.8257 30.788C88.0057 30.968 88.2577 31.058 88.5817 31.058C88.7977 31.058 89.0197 31.022 89.2477 30.95C89.4877 30.878 89.7457 30.77 90.0217 30.626L90.5437 32.12C90.1717 32.348 89.7877 32.528 89.3917 32.66C88.9957 32.78 88.5937 32.84 88.1857 32.84C87.7057 32.84 87.2617 32.75 86.8537 32.57C86.4457 32.378 86.1157 32.078 85.8637 31.67C85.6237 31.262 85.5037 30.734 85.5037 30.086V20.924H87.5557V29.726ZM84.1537 23.534H90.3817V25.01H84.1537V23.534ZM99.1003 25.928C98.7643 25.58 98.3683 25.31 97.9123 25.118C97.4563 24.926 96.9403 24.83 96.3643 24.83C95.8123 24.83 95.3203 24.962 94.8883 25.226C94.4563 25.49 94.1203 25.862 93.8803 26.342C93.6403 26.81 93.5203 27.356 93.5203 27.98C93.5203 28.604 93.6403 29.156 93.8803 29.636C94.1203 30.104 94.4563 30.476 94.8883 30.752C95.3203 31.016 95.8123 31.148 96.3643 31.148C96.9643 31.148 97.5043 31.052 97.9843 30.86C98.4643 30.656 98.8663 30.362 99.1903 29.978L100.342 31.112C99.9103 31.652 99.3463 32.072 98.6503 32.372C97.9663 32.672 97.1743 32.822 96.2743 32.822C95.3263 32.822 94.4863 32.618 93.7543 32.21C93.0343 31.802 92.4703 31.238 92.0623 30.518C91.6543 29.786 91.4503 28.94 91.4503 27.98C91.4503 27.02 91.6543 26.18 92.0623 25.46C92.4703 24.728 93.0343 24.158 93.7543 23.75C94.4863 23.33 95.3263 23.12 96.2743 23.12C97.1383 23.12 97.9003 23.252 98.5603 23.516C99.2323 23.768 99.7903 24.128 100.234 24.596L99.1003 25.928ZM109.71 27.35C109.71 26.606 109.506 26.024 109.098 25.604C108.69 25.172 108.126 24.956 107.406 24.956C106.554 24.968 105.882 25.268 105.39 25.856C104.91 26.444 104.67 27.176 104.67 28.052H104.094C104.094 26.864 104.262 25.91 104.598 25.19C104.934 24.47 105.408 23.948 106.02 23.624C106.644 23.288 107.376 23.12 108.216 23.12C108.96 23.12 109.596 23.27 110.124 23.57C110.664 23.87 111.072 24.296 111.348 24.848C111.636 25.388 111.78 26.042 111.78 26.81V32.75H109.71V27.35ZM102.6 19.394H104.67V32.75H102.6V19.394ZM117.891 23.192H120.051L122.715 30.842L125.343 23.192H127.413L123.741 32.75H121.599L117.891 23.192ZM128.86 23.192H130.912V32.75H128.86V23.192ZM129.886 19.25C130.234 19.25 130.522 19.364 130.75 19.592C130.978 19.82 131.092 20.108 131.092 20.456C131.092 20.792 130.978 21.08 130.75 21.32C130.522 21.548 130.234 21.662 129.886 21.662C129.55 21.662 129.262 21.548 129.022 21.32C128.794 21.08 128.68 20.792 128.68 20.456C128.68 20.108 128.794 19.82 129.022 19.592C129.262 19.364 129.55 19.25 129.886 19.25ZM137.629 23.102C138.517 23.102 139.267 23.3 139.879 23.696C140.503 24.08 140.977 24.638 141.301 25.37C141.637 26.09 141.799 26.954 141.787 27.962C141.799 28.97 141.643 29.84 141.319 30.572C140.995 31.304 140.521 31.868 139.897 32.264C139.285 32.648 138.541 32.84 137.665 32.84C136.753 32.84 135.949 32.636 135.253 32.228C134.569 31.808 134.035 31.232 133.651 30.5C133.267 29.756 133.075 28.904 133.075 27.944C133.075 26.984 133.267 26.144 133.651 25.424C134.035 24.692 134.569 24.122 135.253 23.714C135.937 23.306 136.729 23.102 137.629 23.102ZM138.097 24.776C137.521 24.776 137.011 24.914 136.567 25.19C136.123 25.466 135.775 25.85 135.523 26.342C135.283 26.822 135.157 27.374 135.145 27.998C135.157 28.622 135.283 29.174 135.523 29.654C135.775 30.134 136.123 30.512 136.567 30.788C137.011 31.064 137.521 31.202 138.097 31.202C138.673 31.202 139.183 31.064 139.627 30.788C140.071 30.512 140.413 30.134 140.653 29.654C140.905 29.174 141.031 28.622 141.031 27.998C141.031 27.362 140.905 26.804 140.653 26.324C140.413 25.844 140.071 25.466 139.627 25.19C139.183 24.914 138.673 24.776 138.097 24.776ZM141.031 19.394H143.101V32.75H141.031V19.394ZM152.869 27.278C152.845 26.738 152.719 26.282 152.491 25.91C152.275 25.526 151.969 25.232 151.573 25.028C151.177 24.812 150.721 24.704 150.205 24.704C149.629 24.704 149.125 24.836 148.693 25.1C148.273 25.364 147.943 25.736 147.703 26.216C147.463 26.684 147.343 27.236 147.343 27.872C147.343 28.556 147.469 29.15 147.721 29.654C147.985 30.158 148.345 30.548 148.801 30.824C149.269 31.1 149.803 31.238 150.403 31.238C151.471 31.238 152.371 30.86 153.103 30.104L154.201 31.202C153.733 31.718 153.163 32.12 152.491 32.408C151.819 32.684 151.069 32.822 150.241 32.822C149.257 32.822 148.399 32.618 147.667 32.21C146.935 31.802 146.365 31.238 145.957 30.518C145.549 29.786 145.345 28.94 145.345 27.98C145.345 27.02 145.549 26.18 145.957 25.46C146.365 24.728 146.935 24.158 147.667 23.75C148.399 23.342 149.239 23.132 150.187 23.12C151.315 23.12 152.221 23.354 152.905 23.822C153.589 24.278 154.075 24.926 154.363 25.766C154.651 26.606 154.753 27.602 154.669 28.754H147.019V27.278H152.869ZM160.931 23.12C161.915 23.12 162.779 23.324 163.523 23.732C164.279 24.14 164.867 24.71 165.287 25.442C165.707 26.162 165.917 27.002 165.917 27.962C165.917 28.922 165.707 29.768 165.287 30.5C164.867 31.232 164.279 31.802 163.523 32.21C162.779 32.618 161.915 32.822 160.931 32.822C159.947 32.822 159.077 32.618 158.321 32.21C157.565 31.802 156.977 31.232 156.557 30.5C156.137 29.768 155.927 28.922 155.927 27.962C155.927 27.002 156.137 26.162 156.557 25.442C156.977 24.71 157.565 24.14 158.321 23.732C159.077 23.324 159.947 23.12 160.931 23.12ZM160.931 24.794C160.355 24.794 159.845 24.932 159.401 25.208C158.957 25.472 158.609 25.844 158.357 26.324C158.117 26.804 157.997 27.356 157.997 27.98C157.997 28.616 158.117 29.174 158.357 29.654C158.609 30.134 158.957 30.512 159.401 30.788C159.845 31.052 160.355 31.184 160.931 31.184C161.507 31.184 162.011 31.052 162.443 30.788C162.887 30.512 163.229 30.134 163.469 29.654C163.721 29.174 163.847 28.616 163.847 27.98C163.847 27.356 163.721 26.804 163.469 26.324C163.229 25.844 162.887 25.472 162.443 25.208C162.011 24.932 161.507 24.794 160.931 24.794Z" fill="#E5E5E5"/>
<defs>
<linearGradient id="paint0_linear_1_98" x1="219.181" y1="52.75" x2="-34.6129" y2="14.5614" gradientUnits="userSpaceOnUse">
<stop stop-color="#4D4D4D"/>
<stop offset="1" stop-color="#B3B3B3"/>
</linearGradient>
</defs>
</svg>
